<svg width="463" height="256" xmlns="http://www.w3.org/2000/svg" xmlns:xlink="http://www.w3.org/1999/xlink" xml:space="preserve" overflow="hidden"><g transform="translate(-2291 -669)"><g><path d="M2627 672C2696.03 672 2752 727.964 2752 797 2752 866.036 2696.03 922 2627 922 2592.48 922 2561.23 908.009 2538.61 885.388L2526 870.109 2566.25 849.156 2569.71 854.288C2584.37 868.949 2604.62 878.018 2627 878.018 2671.74 878.018 2708.02 841.745 2708.02 797 2708.02 752.255 2671.74 715.983 2627 715.983 2604.62 715.983 2584.37 725.051 2569.71 739.712L2566.25 744.844 2526 723.89 2538.61 708.612C2561.23 685.991 2592.48 672 2627 672Z" fill="#AEAEAE" fill-rule="evenodd" fill-opacity="1"/><path d="M2359.5 768.75 2518.27 768.75 2518.27 741.5 2639.5 796 2518.27 850.5 2518.27 823.25 2359.5 823.25Z" stroke="#000000" stroke-width="6.875" stroke-linecap="butt" stroke-linejoin="miter" stroke-miterlimit="8" stroke-opacity="1" fill="#000000" fill-rule="evenodd" fill-opacity="1"/><path d="M2292 795C2292 755.235 2324.24 723 2364 723 2403.76 723 2436 755.235 2436 795 2436 834.764 2403.76 867 2364 867 2324.24 867 2292 834.764 2292 795Z" fill="#AEAEAE" fill-rule="evenodd" fill-opacity="1"/></g></g></svg>